# xmcd
#
# Track frame offsets:
#	150
#	30486
#	53190
#	69973
#	99837
#	133277
#	174885
#
# Disc length: 2856 seconds
#
# Revision: 0
# Processed by: cddbd v1.5.2PL0 Copyright (c) Steve Scherf et al.
# Submitted via: audiograbber 1.83.01
#
DISCID=510b2607
DTITLE=Mark Knopfler - Live in Belgrado 2013
DYEAR=2013
DGENRE=Folk-Rock
TTITLE0=What It Is
TTITLE1=Corned Beef City
TTITLE2=I Used To Cloud
TTITLE3=5:15 AM
TTITLE4=Privateering
TTITLE5=Father and Son&Hill Farmer's Blues
TTITLE6=Romeo and Juliet
EXTD=
EXTT0=
EXTT1=
EXTT2=
EXTT3=
EXTT4=
EXTT5=
EXTT6=
PLAYORDER=
